<svg width="2993" height="905" viewBox="0 0 2993 905" fill="none" xmlns="http://www.w3.org/2000/svg">
<path d="M2922.99 360.374V303.583C2922.99 298.353 2918.76 294.113 2913.54 294.113C2908.32 294.113 2904.09 289.872 2904.09 284.642V210.365C2904.09 206.648 2907.1 203.634 2910.81 203.634C2914.52 203.634 2917.53 200.62 2917.53 196.902V106.899C2917.53 47.8601 2869.76 -0.000333175 2810.83 -0.000333175H1772.47C1767.25 -0.000333175 1763.02 4.23987 1763.02 9.47042V19.0495C1763.02 28.6793 1750.34 32.1641 1745.44 23.8825L1734.04 4.63745C1732.34 1.76232 1729.25 -0.000333175 1725.91 -0.000333175H1271.46C1267.59 -0.000333175 1264.11 2.36611 1262.67 5.97148L1254.45 26.7034C1251.31 34.6228 1240.14 34.679 1236.92 26.7916L1228.38 5.88325C1226.92 2.32456 1223.46 -0.000333175 1219.63 -0.000333175H583.159C577.939 -0.000333175 573.707 4.23987 573.707 9.47042V19.0495C573.707 28.6793 561.03 32.1641 556.125 23.8825L544.727 4.63745C543.024 1.76232 539.935 -0.000333175 536.598 -0.000333175H139.339C80.5747 -0.000333238 32.9373 47.7284 32.9373 106.605V293.241C32.9373 340.27 45.4312 381.869 67.6837 415.357C80.8659 435.195 78.7812 460.996 62.9796 478.81C23.4645 523.358 -0.000148704 583.107 -0.000148704 650.638C-0.000148704 795.355 107.645 904.492 250.388 904.492C306.898 904.492 356.894 888.322 396.33 859.151C415.193 845.197 440.4 844.884 459.479 858.54C500.205 887.689 550.684 904.492 606.564 904.492C654.524 904.492 698.503 892.147 735.782 870.291C742.102 866.586 750.018 871.061 750.018 878.398V890.037C750.018 895.267 754.25 899.507 759.471 899.507H1625.63C1630.85 899.507 1635.08 895.267 1635.08 890.037V889.348C1635.08 882.235 1642.56 877.752 1648.87 880.995C1678.4 896.15 1712.93 904.492 1751.06 904.492C1789.09 904.492 1823.54 896.193 1853.02 881.115C1859.33 877.882 1866.8 882.366 1866.8 889.474V890.037C1866.8 895.267 1871.03 899.507 1876.25 899.507H2068.06C2073.28 899.507 2077.51 895.267 2077.51 890.037V880.935C2077.51 871.229 2090.35 867.805 2095.17 876.228L2105.76 894.744C2107.44 897.69 2110.57 899.507 2113.96 899.507H2515.51C2556.52 899.507 2589.76 866.197 2589.76 825.107V605.394H2597.65L2648.8 714.213C2649.4 715.475 2649.71 716.853 2649.71 718.249V825.107C2649.71 866.197 2682.95 899.507 2723.96 899.507H2786.15C2827.17 899.507 2860.41 866.197 2860.41 825.107V718.33C2860.41 716.929 2860.72 715.546 2861.32 714.279L2989.84 442.169C2998.7 423.393 2985.03 401.76 2964.3 401.76C2941.49 401.76 2922.99 383.231 2922.99 360.374Z" fill="#AB8DFF"/>
<path d="M107.195 293.241V74.3998H169.393V292.245C169.393 343.09 193.273 372.502 241.534 372.502C289.794 372.502 313.674 343.09 313.674 292.245V74.3998H375.872V293.241C375.872 372.996 326.611 428.331 241.534 428.331C156.456 428.331 107.195 372.996 107.195 293.241Z" fill="#000433"/>
<path d="M431.529 74.3998H499.696L643.483 317.167L646.471 331.124H647.965V74.3998H710.156V423.347H641.989L498.202 180.58L495.214 166.623H493.727V423.347H431.529V74.3998Z" fill="#000433"/>
<path d="M766.661 74.3998H828.859V423.347H766.661V74.3998Z" fill="#000433"/>
<path d="M943.785 129.234H855.72V74.3998H1094.04V129.234H1005.98V423.347H943.785V129.234Z" fill="#000433"/>
<path d="M1214.43 297.724L1109.45 74.3998H1176.12L1246.77 247.38L1315.43 74.3998H1382.1L1276.63 297.724V423.347H1214.43V297.724Z" fill="#000433"/>
<path d="M1502.99 74.3998H1565.19V423.347H1502.99V74.3998Z" fill="#000433"/>
<path d="M1620.84 74.3998H1689.01L1832.8 317.167L1835.79 331.124H1837.28V74.3998H1899.47V423.347H1831.3L1687.52 180.58L1684.53 166.623H1683.04V423.347H1620.84V74.3998Z" fill="#000433"/>
<path d="M2117.88 129.234H2029.81V74.3998H2268.13V129.234H2180.07V423.347H2117.88V129.234Z" fill="#000433"/>
<path d="M2295.54 74.3998H2357.74V221.456H2504.5V74.3998H2566.7V423.347H2504.5V276.29H2357.74V423.347H2295.54V74.3998Z" fill="#000433"/>
<path d="M2623.35 74.3998H2843.27V129.234H2685.55V221.456H2829.83V276.29H2685.55V368.513H2848.74V423.347H2623.35V74.3998Z" fill="#000433"/>
<path d="M74.2577 650.638C74.2577 542.459 154.36 471.176 250.388 471.176C335.966 471.176 393.675 519.529 408.106 588.327L406.119 592.309L347.902 596.799C335.465 553.431 299.642 527.013 249.394 527.013C180.235 527.013 136.949 578.853 136.949 650.638C136.949 722.415 180.735 774.262 250.388 774.262C299.642 774.262 334.972 747.844 347.902 704.476L405.619 708.959L408.106 712.948C389.701 785.728 331.484 830.092 250.388 830.092C154.36 830.092 74.2577 758.808 74.2577 650.638Z" fill="#000433"/>
<path d="M430.935 650.638C430.935 543.462 507.556 471.176 606.564 471.176C706.073 471.176 782.695 543.462 782.695 650.638C782.695 757.813 706.073 830.092 606.564 830.092C507.556 830.092 430.935 757.813 430.935 650.638ZM719.51 650.638C719.51 577.858 675.724 527.013 606.564 527.013C537.905 527.013 493.626 577.858 493.626 650.638C493.626 723.417 537.905 774.262 606.564 774.262C675.724 774.262 719.51 723.417 719.51 650.638Z" fill="#000433"/>
<path d="M824.276 476.161H886.474L993.938 748.339L1101.9 476.161H1164.1V825.107H1104.4V606.266H1102.4L1099.91 628.201L1022.8 825.107H965.584L888.461 628.201L885.974 606.266H883.987V825.107H824.276V476.161Z" fill="#000433"/>
<path d="M1221 476.161H1283.2L1390.66 748.339L1498.62 476.161H1560.82V825.107H1501.12V606.266H1499.12L1496.64 628.201L1419.52 825.107H1362.3L1285.18 628.201L1282.69 606.266H1280.71V825.107H1221V476.161Z" fill="#000433"/>
<path d="M1616.72 695.002V476.161H1678.92V694.006C1678.92 744.851 1702.8 774.262 1751.06 774.262C1799.32 774.262 1823.2 744.851 1823.2 694.006V476.161H1885.39V695.002C1885.39 774.756 1836.14 830.092 1751.06 830.092C1665.99 830.092 1616.72 774.756 1616.72 695.002Z" fill="#000433"/>
<path d="M1941.06 476.161H2009.23L2156 732.885H2157.49V476.161H2219.69V825.107H2151.52L2004.74 568.383H2003.26V825.107H1941.06V476.161Z" fill="#000433"/>
<path d="M2276.19 476.161H2338.39V825.107H2276.19V476.161Z" fill="#000433"/>
<path d="M2453.31 530.994H2365.25V476.161H2603.57V530.994H2515.51V825.107H2453.31V530.994Z" fill="#000433"/>
<path d="M2723.96 699.484L2618.98 476.161H2685.65L2754.31 649.141H2756.3L2824.96 476.161H2891.63L2786.15 699.484V825.107H2723.96V699.484Z" fill="#000433"/>
</svg>
